<mxfile host="app.diagrams.net" modified="2022-01-23T07:34:35.077Z" agent="5.0 (Macintosh; Intel Mac OS X 10_15_7) AppleWebKit/537.36 (KHTML, like Gecko) Chrome/97.0.4692.71 Safari/537.36" etag="buWIw7VRNuHVVE6c5pfR" version="14.7.4" type="github">
  <diagram id="Qb-pGNMmlUkJ60Nu40Tt" name="Page-1">
    <mxGraphModel dx="784" dy="443" grid="1" gridSize="10" guides="1" tooltips="1" connect="1" arrows="1" fold="1" page="1" pageScale="1" pageWidth="827" pageHeight="1169" math="0" shadow="0">
      <root>
        <mxCell id="0" />
        <mxCell id="1" parent="0" />
        <mxCell id="jszqNJm5EIXziX5OZCZj-34" value="" style="rounded=1;whiteSpace=wrap;html=1;fillColor=#ffffff;strokeColor=none;" vertex="1" parent="1">
          <mxGeometry x="35" width="675" height="360" as="geometry" />
        </mxCell>
        <mxCell id="jszqNJm5EIXziX5OZCZj-31" value="" style="edgeStyle=orthogonalEdgeStyle;rounded=0;orthogonalLoop=1;jettySize=auto;html=1;entryX=0.5;entryY=1;entryDx=0;entryDy=0;" edge="1" parent="1" source="jszqNJm5EIXziX5OZCZj-1" target="jszqNJm5EIXziX5OZCZj-18">
          <mxGeometry relative="1" as="geometry">
            <mxPoint x="478" y="289" as="targetPoint" />
          </mxGeometry>
        </mxCell>
        <mxCell id="jszqNJm5EIXziX5OZCZj-1" value="" style="shape=mxgraph.signs.tech.computer;html=1;pointerEvents=1;fillColor=#000000;strokeColor=none;verticalLabelPosition=bottom;verticalAlign=top;align=center;" vertex="1" parent="1">
          <mxGeometry x="300" y="240" width="98" height="98" as="geometry" />
        </mxCell>
        <mxCell id="jszqNJm5EIXziX5OZCZj-2" value="" style="verticalLabelPosition=bottom;html=1;verticalAlign=top;align=center;strokeColor=none;fillColor=#00BEF2;shape=mxgraph.azure.user;" vertex="1" parent="1">
          <mxGeometry x="280" y="288" width="47.5" height="50" as="geometry" />
        </mxCell>
        <mxCell id="jszqNJm5EIXziX5OZCZj-4" value="" style="rounded=1;whiteSpace=wrap;html=1;" vertex="1" parent="1">
          <mxGeometry x="60" y="120" width="140" height="110" as="geometry" />
        </mxCell>
        <mxCell id="jszqNJm5EIXziX5OZCZj-5" value="&lt;font style=&quot;font-size: 14px&quot;&gt;Netlify&lt;/font&gt;" style="text;html=1;strokeColor=none;align=center;verticalAlign=middle;whiteSpace=wrap;rounded=0;fillColor=#ffffff;" vertex="1" parent="1">
          <mxGeometry x="70" y="110" width="50" height="20" as="geometry" />
        </mxCell>
        <mxCell id="jszqNJm5EIXziX5OZCZj-7" value="&lt;font style=&quot;font-size: 14px&quot;&gt;&lt;br&gt;&lt;br&gt;&lt;br&gt;(drello-web)&lt;br&gt;&lt;/font&gt;" style="rounded=0;whiteSpace=wrap;html=1;fillColor=#ffffff;" vertex="1" parent="1">
          <mxGeometry x="80" y="135" width="100" height="75" as="geometry" />
        </mxCell>
        <mxCell id="jszqNJm5EIXziX5OZCZj-8" value="" style="rounded=1;whiteSpace=wrap;html=1;" vertex="1" parent="1">
          <mxGeometry x="230" y="20" width="120" height="90" as="geometry" />
        </mxCell>
        <mxCell id="jszqNJm5EIXziX5OZCZj-9" value="&lt;font style=&quot;font-size: 14px&quot;&gt;Heroku&lt;/font&gt;" style="text;html=1;strokeColor=none;align=center;verticalAlign=middle;whiteSpace=wrap;rounded=0;fillColor=#ffffff;" vertex="1" parent="1">
          <mxGeometry x="240" y="10" width="60" height="20" as="geometry" />
        </mxCell>
        <mxCell id="jszqNJm5EIXziX5OZCZj-33" value="" style="edgeStyle=orthogonalEdgeStyle;rounded=0;orthogonalLoop=1;jettySize=auto;html=1;exitX=1;exitY=0.75;exitDx=0;exitDy=0;entryX=0;entryY=0.5;entryDx=0;entryDy=0;" edge="1" parent="1" source="jszqNJm5EIXziX5OZCZj-10" target="jszqNJm5EIXziX5OZCZj-18">
          <mxGeometry relative="1" as="geometry">
            <mxPoint x="170" y="65" as="targetPoint" />
            <Array as="points">
              <mxPoint x="380" y="80" />
              <mxPoint x="380" y="173" />
            </Array>
          </mxGeometry>
        </mxCell>
        <mxCell id="jszqNJm5EIXziX5OZCZj-10" value="&lt;font style=&quot;font-size: 14px&quot;&gt;Dyno&lt;br&gt;(drello-api)&lt;/font&gt;" style="rounded=0;whiteSpace=wrap;html=1;fillColor=#ffffff;" vertex="1" parent="1">
          <mxGeometry x="250" y="35" width="80" height="60" as="geometry" />
        </mxCell>
        <mxCell id="jszqNJm5EIXziX5OZCZj-12" value="" style="rounded=1;whiteSpace=wrap;html=1;" vertex="1" parent="1">
          <mxGeometry x="401" y="20" width="120" height="90" as="geometry" />
        </mxCell>
        <mxCell id="jszqNJm5EIXziX5OZCZj-13" value="&lt;font style=&quot;font-size: 14px&quot;&gt;ClearDB&lt;/font&gt;" style="text;html=1;strokeColor=none;align=center;verticalAlign=middle;whiteSpace=wrap;rounded=0;fillColor=#ffffff;" vertex="1" parent="1">
          <mxGeometry x="411" y="10" width="69" height="20" as="geometry" />
        </mxCell>
        <mxCell id="jszqNJm5EIXziX5OZCZj-15" value="&lt;font style=&quot;font-size: 14px&quot;&gt;MySQL&lt;/font&gt;" style="strokeWidth=2;html=1;shape=mxgraph.flowchart.database;whiteSpace=wrap;fillColor=#ffffff;" vertex="1" parent="1">
          <mxGeometry x="431" y="35" width="60" height="60" as="geometry" />
        </mxCell>
        <mxCell id="jszqNJm5EIXziX5OZCZj-18" value="" style="strokeColor=#dddddd;shadow=1;strokeWidth=1;rounded=1;absoluteArcSize=1;arcSize=2;fillColor=#ffffff;" vertex="1" parent="1">
          <mxGeometry x="540" y="142.5" width="140" height="60" as="geometry" />
        </mxCell>
        <mxCell id="jszqNJm5EIXziX5OZCZj-19" value="&lt;font style=&quot;font-size: 14px&quot;&gt;&lt;font color=&quot;#000000&quot; style=&quot;font-size: 14px&quot;&gt;Authentication&lt;/font&gt;&lt;br&gt;Firebase&lt;/font&gt;" style="dashed=0;connectable=0;html=1;fillColor=#5184F3;strokeColor=none;shape=mxgraph.gcp2.firebase;part=1;labelPosition=right;verticalLabelPosition=middle;align=left;verticalAlign=middle;spacingLeft=5;fontColor=#999999;fontSize=12;" vertex="1" parent="jszqNJm5EIXziX5OZCZj-18">
          <mxGeometry width="32.4" height="45" relative="1" as="geometry">
            <mxPoint x="5" y="7" as="offset" />
          </mxGeometry>
        </mxCell>
        <mxCell id="jszqNJm5EIXziX5OZCZj-23" value="" style="aspect=fixed;html=1;points=[];align=center;image;fontSize=12;image=img/lib/mscae/Docker.svg;fillColor=#ffffff;" vertex="1" parent="1">
          <mxGeometry x="105" y="144.5" width="50" height="41" as="geometry" />
        </mxCell>
        <mxCell id="jszqNJm5EIXziX5OZCZj-26" value="" style="edgeStyle=orthogonalEdgeStyle;rounded=0;orthogonalLoop=1;jettySize=auto;html=1;entryX=0.5;entryY=1;entryDx=0;entryDy=0;" edge="1" parent="1" source="jszqNJm5EIXziX5OZCZj-1" target="jszqNJm5EIXziX5OZCZj-7">
          <mxGeometry relative="1" as="geometry">
            <mxPoint x="231" y="289" as="targetPoint" />
          </mxGeometry>
        </mxCell>
        <mxCell id="jszqNJm5EIXziX5OZCZj-28" value="" style="edgeStyle=orthogonalEdgeStyle;rounded=0;orthogonalLoop=1;jettySize=auto;html=1;entryX=0.5;entryY=1;entryDx=0;entryDy=0;" edge="1" parent="1" source="jszqNJm5EIXziX5OZCZj-1" target="jszqNJm5EIXziX5OZCZj-10">
          <mxGeometry relative="1" as="geometry">
            <mxPoint x="349.0000000000002" y="160" as="targetPoint" />
          </mxGeometry>
        </mxCell>
        <mxCell id="jszqNJm5EIXziX5OZCZj-29" value="" style="edgeStyle=orthogonalEdgeStyle;rounded=0;orthogonalLoop=1;jettySize=auto;html=1;" edge="1" parent="1" source="jszqNJm5EIXziX5OZCZj-10" target="jszqNJm5EIXziX5OZCZj-15">
          <mxGeometry relative="1" as="geometry" />
        </mxCell>
      </root>
    </mxGraphModel>
  </diagram>
</mxfile>
